<svg height="512pt" viewBox="0 0 512 512" width="512pt" xmlns="http://www.w3.org/2000/svg"><path d="m406.65625 171.113281-45.742188 11.730469-26.140624-101.933594c-2.742188-10.695312 3.707031-21.59375 14.40625-24.339844l22.492187-5.769531c10.699219-2.742187 21.597656 3.707031 24.34375 14.40625l22.164063 86.433594c2.195312 8.558594-2.960938 17.277344-11.523438 19.472656zm0 0" fill="#4caf50"/><path d="m418.179688 151.640625-22.164063-86.433594c-2.746094-10.699219-13.644531-17.148437-24.34375-14.40625l-22.492187 5.769531c-1.398438.359376-2.71875.863282-3.964844 1.484376 9.464844-.6875 18.359375 5.449218 20.800781 14.964843l22.167969 86.433594c2.039062 7.953125-2.273438 16.03125-9.757813 18.902344l28.234375-7.242188c8.558594-2.195312 13.714844-10.914062 11.519532-19.472656zm0 0" fill="#43a047"/><path d="m467.675781 392.660156-79.417969-102.105468-23.226562-90.558594c-2.054688-8.023438-10.226562-12.855469-18.253906-10.800782-8.023438 2.058594-12.863282 10.230469-10.804688 18.253907l24 93.578125c.511719 1.996094 1.429688 3.859375 2.691406 5.484375l77.226563 99.289062-4.816406 26.8125c-1.464844 8.152344 3.957031 15.949219 12.109375 17.414063 8.15625 1.464844 15.953125-3.957032 17.417968-12.109375l6-33.398438c.75-4.1875-.3125-8.5-2.925781-11.859375zm0 0" fill="#546e7a"/><path d="m349.230469 186.589844c-7.269531-3.976563-16.382813-1.304688-20.359375 5.964844l-42.410156 77.558593c-1.484376 2.714844-2.089844 5.820313-1.742188 8.894531l10.128906 88.960938-16.992187 6.488281c-7.738281 2.953125-11.617188 11.625-8.660157 19.363281 2.949219 7.730469 11.617188 11.621094 19.363282 8.664063l27.863281-10.640625c6.394531-2.441406 10.324219-8.90625 9.550781-15.710938l-10.910156-95.792968 40.132812-73.394532c3.972657-7.269531 1.300782-16.382812-5.964843-20.355468zm0 0" fill="#455a64"/><path d="m4 0h32.460938c25.242187 0 47.371093 16.867188 54.0625 41.207031l36.527343 132.882813c3.453125 12.558594 11.167969 23.523437 21.828125 31.011718l56.617188 39.789063c12.25 8.605469 20.546875 21.753906 23.046875 36.511719l11.414062 67.40625c3.613281 21.339844 19.179688 38.691406 40.003907 44.585937l191.25 54.164063c24.132812 6.835937 40.789062 28.867187 40.789062 53.949218v6.492188c0 2.210938-1.789062 4-4 4h-508v-508c0-2.210938 1.789062-4 4-4zm0 0" fill="#e1f5fe"/><path d="m471.210938 447.558594-191.25-54.160156c-20.824219-5.898438-36.394532-23.25-40.003907-44.585938l-11.414062-67.40625c-2.5-14.761719-10.796875-27.910156-23.046875-36.515625l-56.617188-39.789063c-10.65625-7.488281-18.375-18.453124-21.828125-31.011718l-36.527343-132.882813c-6.691407-24.339843-28.820313-41.207031-54.0625-41.207031h-30.90625c25.242187 0 47.371093 16.867188 54.0625 41.207031l36.527343 132.882813c3.453125 12.558594 11.171875 23.523437 21.828125 31.011718l56.617188 39.789063c12.25 8.605469 20.546875 21.753906 23.046875 36.511719l11.414062 67.40625c3.609375 21.339844 19.179688 38.691406 40 44.585937l191.253907 54.164063c24.132812 6.835937 40.789062 28.867187 40.789062 53.945312v10.496094h26.90625c2.210938 0 4-1.789062 4-4v-6.492188c0-25.082031-16.65625-47.113281-40.789062-53.949218zm0 0" fill="#b3e5fc"/><path d="m294.433594 8.996094c-12.984375-4.695313-27.316406 2.023437-32.011719 15.007812s2.023437 27.316406 15.007813 32.011719c12.984374 4.699219 27.316406-2.023437 32.011718-15.003906 4.695313-12.984375-2.023437-27.320313-15.007812-32.015625zm0 0" fill="#ffab91"/><path d="m366.417969 212.910156-52.863281 13.558594c-1.832032.46875-3.699219-.636719-4.171876-2.46875l-33.925781-132.292969c-4.117187-16.050781 5.558594-32.394531 21.605469-36.511719 16.050781-4.117187 32.398438 5.558594 36.511719 21.605469l34.285156 133.675781c.273437 1.070313-.371094 2.160157-1.441406 2.433594zm0 0" fill="#f06292"/><path d="m297.0625 55.195312c-5.292969 1.359376-9.886719 4.050782-13.527344 7.625 9.972656 2.796876 18.222656 10.679688 20.980469 21.433594l34.78125 135.613282 27.121094-6.957032c1.070312-.273437 1.714843-1.363281 1.441406-2.433594l-34.285156-133.675781c-4.113281-16.046875-20.460938-25.722656-36.511719-21.605469zm0 0" fill="#ec407a"/><path d="m409.953125 109.65625-10.523437-.882812c-10.398438-.867188-18.980469-8.28125-21.355469-18.441407l-8.824219-37.789062c-.941406-4.035157-4.976562-6.542969-9.007812-5.597657-4.035157.941407-6.542969 4.976563-5.597657 9.007813l8.824219 37.789063c3.859375 16.519531 17.808594 28.566406 34.710938 29.980468l10.523437.878906c.214844.019532.425781.027344.636719.027344 3.855468 0 7.136718-2.960937 7.464844-6.875.34375-4.128906-2.722657-7.753906-6.851563-8.097656zm0 0" fill="#fdd835"/><path d="m206.636719 387.527344-21.46875-245.261719c-.359375-4.125-3.996094-7.167969-8.125-6.816406-4.125.359375-7.179688 4-6.816407 8.125l21.464844 245.261719c.34375 3.902343 3.617188 6.847656 7.464844 6.847656.21875 0 .441406-.011719.660156-.03125 4.128906-.359375 7.179688-4 6.820313-8.125zm0 0" fill="#455a64"/><path d="m309.171875 76.613281c-7.691406-3.070312-16.417969.679688-19.488281 8.375l-30.074219 75.371094-82.660156 9.25c-8.230469.921875-14.160157 8.34375-13.234375 16.578125.917968 8.230469 8.339844 14.160156 16.574218 13.238281l91.589844-10.253906c5.5-.613281 10.214844-4.207031 12.265625-9.347656l33.402344-83.71875c3.070313-7.695313-.679687-16.421875-8.375-19.492188zm0 0" fill="#fdd835"/><g fill="#b3e5fc"><path d="m106.019531 356.082031c0 8.535157-6.917969 15.453125-15.453125 15.453125-8.53125 0-15.453125-6.917968-15.453125-15.453125 0-8.535156 6.921875-15.453125 15.453125-15.453125 8.535156 0 15.453125 6.917969 15.453125 15.453125zm0 0"/><path d="m286.140625 467.292969c0 8.535156-6.917969 15.453125-15.453125 15.453125-8.53125 0-15.453125-6.917969-15.453125-15.453125 0-8.535157 6.921875-15.453125 15.453125-15.453125 8.535156 0 15.453125 6.917968 15.453125 15.453125zm0 0"/><path d="m204.394531 15.453125c0 8.535156-6.917969 15.453125-15.453125 15.453125-8.53125 0-15.453125-6.917969-15.453125-15.453125s6.921875-15.453125 15.453125-15.453125c8.535156 0 15.453125 6.917969 15.453125 15.453125zm0 0"/><path d="m481.535156 219.945312c0 8.53125-6.917968 15.453126-15.453125 15.453126-8.535156 0-15.453125-6.921876-15.453125-15.453126 0-8.535156 6.917969-15.453124 15.453125-15.453124 8.535157 0 15.453125 6.917968 15.453125 15.453124zm0 0"/><path d="m58.90625 121.394531c0 8.535157-6.917969 15.453125-15.453125 15.453125s-15.453125-6.917968-15.453125-15.453125c0-8.535156 6.917969-15.453125 15.453125-15.453125s15.453125 6.917969 15.453125 15.453125zm0 0"/></g></svg>