<?xml version="1.0" encoding="iso-8859-1"?>
<!-- Generator: Adobe Illustrator 19.0.0, SVG Export Plug-In . SVG Version: 6.00 Build 0)  -->
<svg version="1.1" id="Layer_1" xmlns="http://www.w3.org/2000/svg" xmlns:xlink="http://www.w3.org/1999/xlink" x="0px" y="0px"
	 viewBox="0 0 512 512" style="enable-background:new 0 0 512 512;" xml:space="preserve">
<g>
	<circle style="fill:#1669AD;" cx="256" cy="256" r="256"/>
	<circle style="fill:#2A81C2;" cx="256" cy="256.002" r="203.503"/>
	<circle style="fill:#E65439;" cx="230.025" cy="317.135" r="66.714"/>
	<path style="fill:#CDCCCA;" d="M158.438,199.891h26.109h2.111c1.4,0,2.533-1.135,2.533-2.533c0-1.4-1.133-2.533-2.533-2.533h-2.111
		h-1.738c-2.017,0-3.653-1.637-3.653-3.654s1.637-3.654,3.653-3.654h53.396c2.019,0,3.655,1.637,3.655,3.654
		s-1.637,3.654-3.655,3.654h-14.282h-2.001c-1.418,0-2.564,1.148-2.564,2.566c0,1.225,0.859,2.244,2.008,2.5h3.911
		c4.975,0,9.008,4.033,9.008,9.008s-4.034,9.008-9.008,9.008h-64.838c-4.978,0-9.009-4.033-9.009-9.008
		S153.46,199.891,158.438,199.891z"/>
	<path style="fill:#494A4A;" d="M301.087,383.963l-134.784-99.377c-8.545-6.301-18.869-9.631-29.854-9.631
		c-15.358,0-29.629,6.484-39.152,17.791l-23.305,27.666c25.411,76.289,97.383,131.301,182.212,131.301c0.04,0,0.08,0,0.122,0
		l39.977-18.836c11.509-5.422,18.348-13.521,19.256-22.809C316.465,400.785,311.326,391.514,301.087,383.963z"/>
	<path style="fill:#323232;" d="M315.536,410.225c-2.374-3.313-5.547-6.467-9.48-9.367l-134.785-99.38
		c-8.545-6.299-18.869-9.629-29.854-9.629c-15.358,0-29.629,6.484-39.152,17.791l-22.268,26.438
		c29.533,68.037,97.305,115.635,176.206,115.635c0.04,0,0.08,0,0.122,0l39.977-18.836
		C307.745,427.486,314.567,419.445,315.536,410.225z"/>
	<path style="fill:#494A4A;" d="M256.203,451.713c94.405,0,172.898-68.131,188.995-157.904l-77.707-77.467
		c-8.817-8.789-20.498-13.631-32.893-13.631c-12.852,0-24.833,5.146-33.735,14.492L125.979,400.791
		C160.203,432.394,205.944,451.713,256.203,451.713z"/>
	<path style="fill:#323232;" d="M315.771,232.109L142.265,414.248c31.872,23.539,71.275,37.465,113.938,37.465
		c94.393,0,172.875-68.111,188.987-157.865l-62.792-62.6c-8.818-8.789-20.499-13.631-32.894-13.631
		C336.653,217.617,324.673,222.764,315.771,232.109z"/>
	<path style="fill:#E8E9EC;" d="M290.253,93.07H187.354c-3.583,0-6.488,2.904-6.488,6.486c0,3.584,2.905,6.488,6.488,6.488h4.944
		c1.937,0.213,3.45,1.838,3.45,3.832c0,2.141-1.735,3.875-3.875,3.875h-0.929h-64.161c-9.109,0-16.494,7.385-16.494,16.494
		s7.385,16.494,16.494,16.494h112.746c9.108,0,16.493-7.385,16.493-16.494s-7.385-16.494-16.493-16.494h-9.087
		c-2.082-0.057-3.754-1.754-3.754-3.848c0-2.131,1.728-3.859,3.859-3.859h3.874h55.831c3.582,0,6.486-2.904,6.486-6.488
		C296.739,95.975,293.835,93.07,290.253,93.07z"/>
	<path style="fill:#E8E9EC;" d="M427.024,143.728h-39.789c-1.85,0-3.349,1.498-3.349,3.346c0,1.85,1.499,3.35,3.349,3.35h1.064h2.66
		c0.738,0,1.336,0.598,1.336,1.336s-0.598,1.338-1.336,1.338h-2.66v0.018h-34.935c-6.88,0-12.457,5.578-12.457,12.457v0.916
		c0,6.881,5.577,12.459,12.457,12.459h0.312h1.193c0.774,0,1.402,0.627,1.402,1.402c0,0.773-0.628,1.4-1.402,1.4h-1.193v0.02
		h-30.583c-1.916,0-3.47,1.553-3.47,3.467c0,1.916,1.554,3.471,3.47,3.471h51.615c1.916,0,3.469-1.555,3.469-3.471
		c0-1.914-1.553-3.467-3.469-3.467H373.4v-0.02h-1.635c-0.775,0-1.402-0.627-1.402-1.4c0-0.775,0.627-1.402,1.402-1.402h1.635
		h40.071c6.88,0,12.458-5.578,12.458-12.459v-0.916c0-6.879-5.578-12.457-12.458-12.457h-1.658v-0.018h-1.935
		c-0.737,0-1.336-0.6-1.336-1.338s0.599-1.336,1.336-1.336h1.935h15.21c1.85,0,3.347-1.5,3.347-3.35
		C430.371,145.227,428.874,143.728,427.024,143.728z"/>
	<path style="fill:#E8E9EC;" d="M307.217,307.936c7.95-21.197,39.254-64.924,76.023-4.303c-4.968-37.764,16.06-48.361,55.235-16.48
		c-0.01-0.025-0.02-0.049-0.029-0.074l-70.954-70.736c-8.817-8.789-20.498-13.631-32.893-13.631
		c-12.852,0-24.833,5.146-33.735,14.492l-86.427,90.729C214.646,307.717,287.866,233.342,307.217,307.936z"/>
	<path style="fill:#CDCCCA;" d="M438.475,287.152L438.475,287.152l-56.076-55.904c-8.818-8.789-20.499-13.631-32.894-13.631
		c-12.852,0-24.832,5.146-33.734,14.492l-40.613,42.633c13.504,0.244,25.695,8.662,32.059,33.193
		c7.95-21.197,39.254-64.924,76.023-4.303C378.271,265.869,399.3,255.271,438.475,287.152z"/>
	<path style="fill:#E8E9EC;" d="M136.448,274.955c-15.358,0-29.629,6.484-39.152,17.791l-20.561,24.41l0,0
		c16.322-10.047,37.688-16.053,41.166,17.51c6.957-18.611,27.826-33.021,42.732-4.699c-1.49-22.857,15.699-36.885,42.881-17.945l0,0
		l-37.212-27.436C157.758,278.285,147.434,274.955,136.448,274.955z"/>
	<path style="fill:#CDCCCA;" d="M174.661,303.977l-3.39-2.498c-8.545-6.299-18.869-9.629-29.854-9.629
		c-15.336,0-29.587,6.467-39.109,17.742c7.735,1.51,13.868,8.416,15.594,25.074c6.957-18.611,27.826-33.021,42.732-4.699
		C159.785,316.951,165.001,306.812,174.661,303.977z"/>
</g>
<g>
</g>
<g>
</g>
<g>
</g>
<g>
</g>
<g>
</g>
<g>
</g>
<g>
</g>
<g>
</g>
<g>
</g>
<g>
</g>
<g>
</g>
<g>
</g>
<g>
</g>
<g>
</g>
<g>
</g>
</svg>
