<svg height="464pt" viewBox="0 0 464 464" width="464pt" xmlns="http://www.w3.org/2000/svg"><path d="m376 288c26.507812 0 48 21.492188 48 48v128h-96v-128c0-26.507812 21.492188-48 48-48zm0 0" fill="#9bb93c"/><path d="m88 288c26.507812 0 48 21.492188 48 48v128h-96v-128c0-26.507812 21.492188-48 48-48zm0 0" fill="#9bb93c"/><path d="m232 176c53.019531 0 96 42.980469 96 96v192h-192v-192c0-53.019531 42.980469-96 96-96zm0 0" fill="#6da024"/><path d="m64 384h16v16h-16zm0 0" fill="#6da024"/><path d="m80 368h16v16h-16zm0 0" fill="#6da024"/><path d="m96 384h16v16h-16zm0 0" fill="#6da024"/><g fill="#9bb93c"><path d="m160 408h16v16h-16zm0 0"/><path d="m176 392h16v16h-16zm0 0"/><path d="m248 368h16v16h-16zm0 0"/><path d="m264 352h16v16h-16zm0 0"/><path d="m280 368h16v16h-16zm0 0"/></g><path d="m352 392h16v16h-16zm0 0" fill="#6da024"/><path d="m368 408h16v16h-16zm0 0" fill="#6da024"/><path d="m376 344h16v16h-16zm0 0" fill="#6da024"/><path d="m160 320h16v16h-16zm0 0" fill="#9bb93c"/><path d="m176 304h16v16h-16zm0 0" fill="#9bb93c"/><path d="m192 320h16v16h-16zm0 0" fill="#9bb93c"/><path d="m256 304h16v16h-16zm0 0" fill="#9bb93c"/><path d="m240 288h16v16h-16zm0 0" fill="#9bb93c"/><path d="m448 104h-1.472656c.949218-2.5625 1.445312-5.269531 1.472656-8 0-13.253906-10.746094-24-24-24-.902344.039062-1.796875.128906-2.6875.273438-5.140625-16.851563-19.101562-29.53125-36.367188-33.035157-17.269531-3.503906-35.066406 2.734375-46.367187 16.25s-14.289063 32.136719-7.785156 48.511719h-10.792969c-8.835938 0-16 7.164062-16 16s7.164062 16 16 16h128c8.835938 0 16-7.164062 16-16s-7.164062-16-16-16zm0 0" fill="#83d7dd"/><path d="m120 144h-24c0-17.671875-14.328125-32-32-32s-32 14.328125-32 32h-16c-8.835938 0-16 7.164062-16 16s7.164062 16 16 16h104c8.835938 0 16-7.164062 16-16s-7.164062-16-16-16zm0 0" fill="#83d7dd"/><path d="m192 48c0 26.507812-21.492188 48-48 48s-48-21.492188-48-48 21.492188-48 48-48 48 21.492188 48 48zm0 0" fill="#f7ce49"/><path d="m256 64h-9.472656c.949218-2.5625 1.445312-5.269531 1.472656-8 0-13.253906-10.746094-24-24-24s-24 10.746094-24 24c.027344 2.730469.523438 5.4375 1.472656 8h-25.472656c-8.835938 0-16 7.164062-16 16s7.164062 16 16 16h80c8.835938 0 16-7.164062 16-16s-7.164062-16-16-16zm0 0" fill="#2bb3ce"/><path d="m232 176c-53.019531 0-96 42.980469-96 96v8h12.863281c17.195313 0 33.503907-7.640625 44.511719-20.847656l10.730469-12.878906c3.050781-3.664063 7.503906-5.875 12.269531-6.089844s9.398438 1.585937 12.769531 4.960937l6.855469 6.855469c6.628906 6.625 17.371094 6.625 24 0s17.371094-6.625 24 0l3.03125 3.03125c10.867188 10.867188 25.601562 16.96875 40.96875 16.96875 0-53.019531-42.980469-96-96-96zm0 0" fill="#83d7dd"/></svg>