<svg height="512pt" viewBox="0 -7 512 512" width="512pt" xmlns="http://www.w3.org/2000/svg"><path d="m338.667969 144.167969c-9.664063 0-17.5-7.835938-17.5-17.5v-56.992188c0-14.984375-12.191407-27.175781-27.175781-27.175781h-75.984376c-14.984374 0-27.171874 12.191406-27.171874 27.175781v56.988281c0 9.667969-7.835938 17.5-17.5 17.5-9.667969 0-17.5-7.832031-17.5-17.5v-56.988281c0-34.285156 27.890624-62.175781 62.171874-62.175781h75.984376c34.28125 0 62.175781 27.890625 62.175781 62.175781v56.988281c0 9.667969-7.835938 17.503907-17.5 17.503907zm0 0" fill="#99d1c2"/><path d="m504.5 135.730469v319.980469c0 19.230468-15.589844 34.820312-34.820312 34.820312h-427.359376c-19.230468 0-34.820312-15.589844-34.820312-34.820312v-319.980469zm0 0" fill="#4e555c"/><path d="m504.5 135.730469h-497v52.171875l81.542969 116.023437c18.394531 26.171875 48.46875 41.792969 80.457031 41.792969h173c31.984375 0 62.0625-15.621094 80.457031-41.792969l81.542969-116.023437zm0 0" fill="#43494f"/><path d="m190.832031 126.667969v-55.757813h-35v55.753906c0 9.667969 7.835938 17.5 17.5 17.5 9.664063 0 17.5-7.832031 17.5-17.496093zm0 0" fill="#75c6b9"/><path d="m321.167969 70.910156v55.753906c0 9.667969 7.835937 17.5 17.5 17.5 9.664062 0 17.5-7.832031 17.5-17.5v-55.753906zm0 0" fill="#75c6b9"/><path d="m469.679688 100.910156h-427.359376c-15.921874 0-29.351562 10.691406-33.5 25.289063l-.011718.03125-1.308594 9.5 106.085938 150.945312c12.796874 18.207031 33.660156 29.042969 55.914062 29.042969h173c22.253906 0 43.117188-10.835938 55.910156-29.042969l106.089844-150.945312c0-19.230469-15.589844-34.820313-34.820312-34.820313zm0 0" fill="#4e555c"/><path d="m265.640625 276.941406h-19.28125c-9.863281 0-17.859375 7.992188-17.859375 17.855469v41.84375c0 9.863281 7.996094 17.859375 17.859375 17.859375h19.28125c9.863281 0 17.859375-7.996094 17.859375-17.859375v-41.84375c0-9.863281-7.996094-17.855469-17.859375-17.855469zm0 0" fill="#99d1c2"/><path d="m182.261719 220.585938v-14.703126c0-4.144531-3.359375-7.5-7.5-7.5-4.144531 0-7.5 3.355469-7.5 7.5v14.703126c0 4.140624 3.355469 7.5 7.5 7.5 4.140625 0 7.5-3.359376 7.5-7.5zm0 0"/><path d="m344.738281 220.585938v-14.703126c0-4.144531-3.355469-7.5-7.5-7.5-4.140625 0-7.5 3.355469-7.5 7.5v14.703126c0 4.140624 3.359375 7.5 7.5 7.5 4.144531 0 7.5-3.359376 7.5-7.5zm0 0"/><path d="m256 235.933594c9.980469 0 19.34375-4.167969 25.699219-11.4375 2.726562-3.117188 2.40625-7.855469-.710938-10.582032-3.121093-2.726562-7.859375-2.410156-10.585937.710938-3.503906 4.007812-8.753906 6.304688-14.402344 6.304688-5.652344 0-10.902344-2.296876-14.40625-6.304688-2.726562-3.117188-7.460938-3.4375-10.582031-.710938-3.117188 2.726563-3.4375 7.464844-.710938 10.582032 6.351563 7.269531 15.71875 11.4375 25.699219 11.4375zm0 0"/><path d="m469.679688 93.410156h-106.011719v-23.734375c0-38.417969-31.257813-69.675781-69.675781-69.675781h-75.984376c-38.417968 0-69.671874 31.253906-69.671874 69.675781v23.734375s-105.945313 0-106.015626 0c-22.785156 0-42.089843 19.171875-42.304687 41.914063-.0039062.070312-.0078125.140625-.0078125.210937 0 .0625-.0078125.121094-.0078125.195313v319.980469c0 23.335937 18.984375 42.320312 42.320312 42.320312h331.738282c4.140625 0 7.5-3.359375 7.5-7.5s-3.359375-7.5-7.5-7.5h-331.738282c-15.0625 0-27.320312-12.257812-27.320312-27.320312v-296.265626l37.402344 53.21875c2.382812 3.386719 7.0625 4.203126 10.449218 1.824219 3.390626-2.382812 4.207032-7.0625 1.824219-10.449219l-49.339843-70.207031c0-14.246093 13.210937-25.421875 26.984374-25.421875h427.359376c14.3125 0 26.085937 11.058594 27.230468 25.078125l-104.632812 148.875c-11.378906 16.191407-29.988282 25.855469-49.777344 25.855469h-51.5s0-13.417969 0-13.421875c0-13.773437-11.585938-25.355469-25.359375-25.355469h-19.28125c-13.984375 0-25.359375 11.375-25.359375 25.355469v13.421875h-51.5c-19.789062 0-38.398438-9.664062-49.777344-25.855469l-37.914062-53.949219c-2.382813-3.390624-7.0625-4.207031-10.449219-1.824218-3.390625 2.382812-4.207031 7.058594-1.824219 10.449218l37.914063 53.949219c14.1875 20.183594 37.382812 32.230469 62.050781 32.230469h51.5v13.421875c0 13.765625 11.59375 25.359375 25.359375 25.359375h19.28125c13.804687 0 25.359375-11.554688 25.359375-25.359375v-13.421875h51.5c24.667969 0 47.863281-12.046875 62.050781-32.230469l92.449219-131.542969v296.265626c0 15.0625-12.253906 27.320312-27.320312 27.320312h-65.621094c-4.144532 0-7.5 3.355469-7.5 7.5 0 4.140625 3.355468 7.5 7.5 7.5h65.621094c23.335937 0 42.320312-18.984375 42.320312-42.320312v-319.980469c0-23.335938-18.984375-42.320313-42.320312-42.320313zm-156.011719 0h-115.332031v-23.734375c0-10.851562 8.824218-19.675781 19.671874-19.675781h75.984376c10.847656 0 19.675781 8.824219 19.675781 19.675781zm15 0v-23.734375c0-19.121093-15.554688-34.675781-34.675781-34.675781h-75.984376c-19.117187 0-34.671874 15.554688-34.671874 34.675781v23.734375h-20v-23.734375c0-30.148437 24.523437-54.675781 54.671874-54.675781h75.984376c30.148437 0 54.675781 24.527344 54.675781 54.675781v23.734375zm-82.308594 253.589844c-5.628906 0-10.359375-4.734375-10.359375-10.359375 0 0 0-41.835937 0-41.84375 0-5.558594 4.679688-10.355469 10.359375-10.355469h19.285156c5.628907 0 10.355469 4.730469 10.355469 10.355469v41.84375c0 5.710937-4.644531 10.359375-10.355469 10.359375zm0 0"/></svg>